<?xml version="1.0" encoding="iso-8859-1"?>
<!-- Generator: Adobe Illustrator 19.0.0, SVG Export Plug-In . SVG Version: 6.00 Build 0)  -->
<svg xmlns="http://www.w3.org/2000/svg" xmlns:xlink="http://www.w3.org/1999/xlink" version="1.1" id="Capa_1" x="0px" y="0px" viewBox="0 0 512.005 512.005" style="enable-background:new 0 0 512.005 512.005;" xml:space="preserve" width="512px" height="512px">
<g>
	<g>
		<path d="M146.203,440.451L25.755,320.003l120.448-120.448c4.16-4.16,4.16-10.923,0-15.083c-4.16-4.16-10.923-4.16-15.083,0    l-128,128c-4.16,4.16-4.16,10.923,0,15.083l128,128c2.091,2.069,4.821,3.115,7.552,3.115s5.461-1.045,7.531-3.136    C150.363,451.373,150.363,444.611,146.203,440.451z" fill="#FFFFFF"/>
	</g>
</g>
<g>
	<g>
		<path d="M501.339,53.336c-5.888,0-10.667,4.779-10.667,10.667c0,135.275-110.059,245.333-245.333,245.333H10.672    c-5.888,0-10.667,4.779-10.667,10.667s4.779,10.667,10.667,10.667h234.667c147.051,0,266.667-119.616,266.667-266.667    C512.005,58.115,507.227,53.336,501.339,53.336z" fill="#FFFFFF"/>
	</g>
</g>
<g>
</g>
<g>
</g>
<g>
</g>
<g>
</g>
<g>
</g>
<g>
</g>
<g>
</g>
<g>
</g>
<g>
</g>
<g>
</g>
<g>
</g>
<g>
</g>
<g>
</g>
<g>
</g>
<g>
</g>
</svg>
