<?xml version="1.0" encoding="iso-8859-1"?>
<!-- Generator: Adobe Illustrator 19.0.0, SVG Export Plug-In . SVG Version: 6.00 Build 0)  -->
<svg xmlns="http://www.w3.org/2000/svg" xmlns:xlink="http://www.w3.org/1999/xlink" version="1.1" id="Capa_1" x="0px" y="0px" viewBox="0 0 512.005 512.005" style="enable-background:new 0 0 512.005 512.005;" xml:space="preserve" width="512px" height="512px">
<g>
	<g>
		<path d="M511.189,315.939c-0.533-1.323-1.323-2.496-2.325-3.477L380.885,184.483c-4.16-4.16-10.923-4.16-15.083,0    c-4.16,4.16-4.16,10.923,0,15.083l109.781,109.781H266.667c-135.275,0-245.333-110.059-245.333-245.333    c0-5.888-4.779-10.667-10.667-10.667S0,58.125,0,64.013C0,211.064,119.616,330.68,266.667,330.68h208.917L365.803,440.461    c-4.16,4.16-4.16,10.923,0,15.083c2.091,2.091,4.821,3.115,7.552,3.115s5.461-1.045,7.552-3.115l127.979-127.979    c0.981-0.981,1.749-2.176,2.304-3.477C512.277,321.485,512.277,318.541,511.189,315.939z" fill="#FFFFFF"/>
	</g>
</g>
<g>
</g>
<g>
</g>
<g>
</g>
<g>
</g>
<g>
</g>
<g>
</g>
<g>
</g>
<g>
</g>
<g>
</g>
<g>
</g>
<g>
</g>
<g>
</g>
<g>
</g>
<g>
</g>
<g>
</g>
</svg>
